<svg width="450" height="120" viewBox="0 0 450 120" fill="none" xmlns="http://www.w3.org/2000/svg">
    <style>
        .title { font-family: 'Inter', sans-serif; font-weight: 700; font-size: 14px; fill: #FFA116; }
        .rank { font-family: 'Fira Code', monospace; font-weight: 700; font-size: 13px; fill: #FFFFFF; }
        .rank-lbl { font-family: 'Inter', sans-serif; font-weight: 500; font-size: 10px; fill: #8B949E; }
        .stat-name { font-family: 'Inter', sans-serif; font-weight: 600; font-size: 11px; fill: #FFFFFF; }
        .stat-val { font-family: 'Fira Code', monospace; font-weight: 600; font-size: 11px; fill: #8B949E; }
        .solved-count { font-family: 'Inter', sans-serif; font-weight: 800; font-size: 20px; fill: #FFFFFF; }
        .solved-lbl { font-family: 'Inter', sans-serif; font-weight: 500; font-size: 9px; fill: #8B949E; }
        .border-glow { stroke: url(#border-grad); stroke-width: 1.5; }
    </style>
    
    <defs>
        <linearGradient id="border-grad" x1="0" y1="0" x2="450" y2="120" gradientUnits="userSpaceOnUse">
            <stop stop-color="#FFA116" stop-opacity="0.8"/>
            <stop offset="0.5" stop-color="#30363D" stop-opacity="0.3"/>
            <stop offset="1" stop-color="#FF6B6B" stop-opacity="0.8"/>
        </linearGradient>
        <linearGradient id="ring-grad" x1="0" y1="0" x2="0" y2="1">
            <stop offset="0%" stop-color="#FFA116"/>
            <stop offset="100%" stop-color="#FF6B6B"/>
        </linearGradient>
        <filter id="glow" x="-10%" y="-10%" width="120%" height="120%">
            <feGaussianBlur stdDeviation="2" result="blur" />
            <feComposite in="SourceGraphic" in2="blur" operator="over"/>
        </filter>
    </defs>

    <!-- Background card -->
    <rect x="1" y="1" width="448" height="118" rx="8" fill="#0D1117" class="border-glow"/>

    <!-- Left: Solved Circle Progress -->
    <g transform="translate(55, 60)">
        <!-- Underlay circle -->
        <circle r="28" stroke="#1F2937" stroke-width="5" fill="none" />
        <!-- Active circle -->
        <circle r="28" stroke="url(#ring-grad)" stroke-width="5" fill="none" 
                stroke-dasharray="175.92904" stroke-dashoffset="160.09542639999998" 
                stroke-linecap="round" transform="rotate(-90)" />
        <!-- Solved Count Text -->
        <text x="0" y="2" text-anchor="middle" class="solved-count">377</text>
        <text x="0" y="14" text-anchor="middle" class="solved-lbl">SOLVED</text>
    </g>

    <!-- Middle: Easy, Medium, Hard stats -->
    <g transform="translate(125, 14)">
        <!-- Easy Row -->
        <g transform="translate(0, 10)">
            <text x="0" y="0" class="stat-name" fill="#2cbb5d">Easy</text>
            <text x="145" y="0" class="stat-val" text-anchor="end">295<tspan fill="#4B5563">/950</tspan></text>
            <rect x="0" y="6" width="145" height="4" rx="2" fill="#1F2937" />
            <rect x="0" y="6" width="44" height="4" rx="2" fill="#2cbb5d" />
        </g>
        
        <!-- Medium Row -->
        <g transform="translate(0, 36)">
            <text x="0" y="0" class="stat-name" fill="#ffb700">Medium</text>
            <text x="145" y="0" class="stat-val" text-anchor="end">82<tspan fill="#4B5563">/2069</tspan></text>
            <rect x="0" y="6" width="145" height="4" rx="2" fill="#1F2937" />
            <rect x="0" y="6" width="4" height="4" rx="2" fill="#ffb700" />
        </g>
        
        <!-- Hard Row -->
        <g transform="translate(0, 62)">
            <text x="0" y="0" class="stat-name" fill="#ef4743">Hard</text>
            <text x="145" y="0" class="stat-val" text-anchor="end">0<tspan fill="#4B5563">/943</tspan></text>
            <rect x="0" y="6" width="145" height="4" rx="2" fill="#1F2937" />
            <rect x="0" y="6" width="0" height="4" rx="2" fill="#ef4743" />
        </g>
    </g>

    <!-- Right Side: LeetCode Brand and Ranking -->
    <g transform="translate(295, 14)">
        <!-- Custom Leetcode Hex Logo -->
        <g transform="translate(0, 6)">
            <path d="M12 2C6.48 2 2 6.48 2 12s4.48 10 10 10 10-4.48 10-10S17.52 2 12 2zm-1 14.5v-9l6 4.5-6 4.5z" fill="#FFA116" opacity="0.1"/>
            <path d="M12 4.5l6.5 3.8v7.5L12 19.5l-6.5-3.8v-7.5L12 4.5z" stroke="#FFA116" stroke-width="1.5" fill="none" opacity="0.3"/>
            <path d="M8.2 12.3c-.2.2-.2.5 0 .7l2.8 2.8c.2.2.5.2.7 0l4.2-4.2c.2-.2.2-.5 0-.7l-.7-.7c-.2-.2-.5-.2-.7 0l-2.8 2.8-1.4-1.4c-.2-.2-.5-.2-.7 0l-.7.7z" fill="#FFA116" />
        </g>
        
        <g transform="translate(25, 5)">
            <text x="0" y="10" class="title">LeetCode Profile</text>
            <text x="0" y="23" class="rank-lbl">Global Ranking</text>
            <text x="0" y="38" class="rank" filter="url(#glow)">#327,699</text>
            <text x="0" y="52" class="rank-lbl">Submission Streak</text>
            <text x="0" y="67" class="rank" fill="#ffb700" style="font-size:11px;">100 Days Badge 🔥</text>
        </g>
    </g>
</svg>